<?xml version="1.0" standalone="no"?>
<!DOCTYPE svg PUBLIC "-//W3C//DTD SVG 20010904//EN"
 "http://www.w3.org/TR/2001/REC-SVG-20010904/DTD/svg10.dtd">
<svg version="1.0" xmlns="http://www.w3.org/2000/svg"
 width="500.000000pt" height="500.000000pt" viewBox="0 0 500.000000 500.000000"
 preserveAspectRatio="xMidYMid meet">
<metadata>
Created by potrace 1.14, written by Peter Selinger 2001-2017
</metadata>
<g transform="translate(0.000000,500.000000) scale(0.100000,-0.100000)"
fill="#000000" stroke="none">
<path d="M3590 3505 c-166 -33 -343 -135 -464 -266 -350 -378 -375 -943 -61
-1361 78 -104 164 -182 275 -248 145 -87 267 -120 444 -120 208 0 368 66 554
228 l72 63 0 -141 0 -140 85 0 85 0 -2 488 -3 487 -302 3 -303 2 0 -75 0 -75
220 0 220 0 0 -170 0 -171 -77 -78 c-182 -184 -404 -269 -628 -241 -302 37
-541 261 -637 596 -33 115 -33 342 0 464 26 96 84 226 132 295 76 110 200 208
329 258 66 26 93 31 201 35 149 5 247 -14 369 -74 85 -42 189 -139 236 -220
15 -27 29 -51 31 -53 2 -2 33 16 70 40 37 24 71 47 76 50 17 11 -65 133 -141
209 -117 119 -263 192 -435 220 -84 14 -267 11 -346 -5z"/>
<path d="M520 2515 l0 -995 95 0 95 0 0 812 c0 614 3 809 12 800 6 -6 170
-287 363 -624 l352 -613 59 -3 59 -3 360 627 360 628 3 -812 2 -812 100 0 100
0 -2 993 -3 992 -99 0 -100 0 -386 -673 c-213 -369 -389 -674 -391 -677 -3 -2
-179 301 -392 675 l-388 680 -99 0 -100 0 0 -995z"/>
</g>
</svg>
